<svg width="150" height="117" viewBox="0 0 150 117" fill="none" xmlns="http://www.w3.org/2000/svg">
<g clip-path="url(#clip0_9_21378)">
<path fill-rule="evenodd" clip-rule="evenodd" d="M0 -18H150V132H0V-18Z" fill="white"/>
<path fill-rule="evenodd" clip-rule="evenodd" d="M35.0312 43.7641C35.0312 21.4123 53.1505 3.29297 75.5024 3.29297C97.8542 3.29297 115.973 21.4123 115.973 43.7641C115.973 66.1151 97.8542 84.2352 75.5024 84.2352C53.1505 84.2352 35.0312 66.1151 35.0312 43.7641Z" fill="#CB3B36"/>
<path fill-rule="evenodd" clip-rule="evenodd" d="M88.3494 24.9687L84.9845 24.2559V28.7406L86.3386 30.1297L86.7915 29.9211L85.7487 28.5663L85.6102 24.8808L88.3245 25.7664L88.3494 24.9687ZM75.5016 0.164062C93.5002 0.164062 108.953 11.0734 115.607 26.6395C116.309 26.8583 116.972 27.1852 117.573 27.6083C121.801 30.5686 122.621 34.6276 122.621 38.8516C122.621 42.5721 121.137 45.2957 118.942 47.4824C117.053 69.8203 98.3265 87.3629 75.5008 87.3629C51.4214 87.3629 31.9014 67.8421 31.9014 43.7635C31.9021 19.6841 51.4229 0.164062 75.5016 0.164062ZM41.9726 60.8151L45.7219 45.9152L45.0418 45.2374C45.0418 45.2374 43.9749 46.642 43.9749 47.3696L42.4466 46.5766L45.0013 38.8057L61.0117 26.3749L79.6096 20.958L81.6586 17.2974L84.4429 17.004L84.148 15.3932L89.2747 15.8328L90.8855 14.9527L94.985 15.6865L93.9609 16.7114L97.4752 18.176L95.4247 18.9074L99.086 23.0085L97.4799 23.1571L105.09 34.8688L105.237 42.7775L105.123 43.1308C106.589 44.4024 107.405 45.242 109.841 45.4584C111.043 45.5642 112.129 45.4039 113.089 45.0374C113.103 44.6148 113.11 44.1899 113.11 43.7643C113.115 38.879 112.167 34.0397 110.318 29.518C108.857 29.539 107.42 29.9483 106.205 30.5888L105.743 30.0122C106.721 28.8523 107.932 27.9098 109.296 27.2449C103.18 14.7574 90.3439 6.15532 75.5008 6.15532C54.7295 6.15532 37.8911 22.9937 37.8911 43.765C37.8926 49.9018 39.3626 55.697 41.9726 60.8151ZM80.1987 57.7716L75.1794 52.9756L75.0767 50.122L74.3304 50.1812L74.4284 53.1881L79.2742 57.8525L76.6494 63.7551C76.5171 64.0547 77.2299 67.3448 77.2299 67.3448H68.7687L70.49 55.4246L68.0676 56.5428L67.4559 55.2246L65.5781 56.3958L64.8194 55.0783L61.9323 55.1094L59.7838 63.2749L61.5285 67.3464H51.5459C51.5459 67.3464 52.5785 60.7987 52.4299 58.633C52.4237 58.549 55.3668 52.9616 55.3668 52.9616L60.141 53.6776L60.4997 52.9616L54.8898 52.2457L49.0518 63.6819L49.5039 67.3464H46.2036C53.0968 75.8994 63.6599 81.3724 75.5016 81.3724C93.824 81.3724 109.085 68.2709 112.429 50.9236C109.991 51.2263 107.591 50.6294 105.371 49.8559C104.586 49.582 103.799 49.1843 103.03 48.7003L95.9033 53.4371L99.086 58.1545L96.3165 57.4985L95.7087 59.5459L92.3205 53.532L98.1857 45.9152L96.441 44.0716L95.0597 45.33L91.3999 41.1636L89.1688 42.2312L86.7277 51.736C86.7277 51.7547 88.979 64.4539 88.979 64.4539L90.8987 67.3464H79.7232L80.1987 57.7716Z" fill="black"/>
<path fill-rule="evenodd" clip-rule="evenodd" d="M95.1207 27.3173L95.9526 27.8363L95.2242 28.3554L94.2881 27.4215L95.1207 27.3173ZM121.867 38.8523C121.867 34.7302 121.073 30.981 117.143 28.2262C114.428 26.3235 110.569 26.7928 107.653 29.1857C110.561 28.3079 114.107 28.6495 116.61 31.6074C121.16 36.9839 117.704 46.9151 109.777 46.2108C106.712 45.9361 106.02 44.8023 103.86 43.0514C103.021 42.3705 101.219 39.692 100.498 38.6243C98.951 37.8928 96.8444 39.5278 97.0724 41.4693C98.9798 44.4996 102.278 47.9765 105.62 49.1423C109.433 50.4714 113.515 51.1741 117.425 47.8528C120.056 45.6147 121.867 42.8506 121.867 38.8523Z" fill="white"/>
<path fill-rule="evenodd" clip-rule="evenodd" d="M143.383 93.2227V113.837H6.61816V93.2227H143.383Z" fill="black"/>
<path fill-rule="evenodd" clip-rule="evenodd" d="M12.5576 109.47H17.994L18.9683 104.649C19.0321 104.171 19.0765 103.676 19.1185 103.198H19.313C19.3558 103.709 19.5076 104.187 19.6796 104.698L21.7947 109.47H25.2475L27.5999 104.395C27.7743 104.013 27.8817 103.599 27.9898 103.199H28.098L29.1781 109.471H34.6145L31.9376 97.4506H25.9167C25.9167 97.4506 23.7806 103.236 23.6724 103.763H23.5223L21.2772 97.4506H15.191L12.5576 109.47ZM42.9466 107.97L42.3582 109.47H36.665L42.3217 97.449H48.86L54.6668 109.47H48.9744L48.3215 107.97H42.9466ZM45.5371 101.449L44.1745 105.116C47.1114 105.122 47.1153 105.116 47.1153 105.116L46.3106 102.997C46.1387 102.485 45.8609 101.96 45.7535 101.449H45.5371ZM114.942 97.4482V103.83C114.942 104.77 114.898 105.6 113.323 105.6C111.748 105.6 111.705 104.77 111.705 103.83V97.4482H105.791V104.872C105.791 108.379 108.768 109.975 113.323 109.975C117.877 109.975 120.856 108.379 120.856 104.872V97.4482H114.942ZM123.651 101.401H126.91V109.47H132.824V101.401H136.084V97.4482H123.651V101.401ZM56.6878 109.474H62.1242L63.0984 104.653C63.163 104.175 63.2066 103.681 63.2486 103.202H63.444C63.486 103.711 63.637 104.192 63.8105 104.702L65.9264 109.474H69.3792L71.7316 104.4C71.9052 104.017 72.0133 103.603 72.1215 103.203H72.2273L73.3098 109.475H78.7462L76.07 97.4529H70.0492C70.0492 97.4529 67.9131 103.241 67.8049 103.767H67.6524L65.4089 97.4529H59.3219L56.6878 109.474ZM81.4784 109.474H86.9148L87.8876 104.653C87.9529 104.175 87.9957 103.681 88.0393 103.202H88.2323C88.2766 103.711 88.4268 104.192 88.5988 104.702L90.7163 109.474H94.1699L96.5223 104.4C96.6943 104.017 96.8017 103.603 96.9098 103.203H97.018L98.1005 109.475H103.537L100.861 97.4529H94.8406C94.8406 97.4529 92.7022 103.241 92.5925 103.767H92.4423L90.1988 97.4529H84.1118L81.4784 109.474Z" fill="#CB3B36"/>
</g>
<defs>
<clipPath id="clip0_9_21378">
<rect width="150" height="117" fill="white"/>
</clipPath>
</defs>
</svg>
